PathFileType	4	(X/Y/Z)	Patient4_TMGait_0pt3_02_left_26.trc.trc
DataRate	CameraRate	NumFrames	NumMarkers	Units	OrigDataRate	OrigDataStartFrame	OrigNumFrames
51.094890510949	51.094890510949	4	33	mm	51.094890510949	1	       141
Frame#	Time	Sacral			L.Shoulder			Chest			R.Shoulder			Neck			R.ASIS			L.ASIS			R.Thigh.Superior			R.Thigh.Lateral			R.Thigh.Inferior			R.Patella			L.Thigh.Superior			L.Thigh.Lateral			L.Thigh.Inferior			L.Patella			L.Shank.Superior			L.Shank.Lateral			L.Shank.Inferior			R.Shank.Superior			R.Shank.Lateral			R.Shank.Inferior			R.Heel			R.Midfoot.Superior			R.Midfoot.Lateral			R.Toe			L.Heel			L.Midfoot.Lateral			L.Midfoot.Superior			L.Toe			L.Elbow			L.Wrist			R.Elbow			R.Wrist			
		X1	Y1	Z1	X2	Y2	Z2	X3	Y3	Z3	X4	Y4	Z4	X5	Y5	Z5	X6	Y6	Z6	X7	Y7	Z7	X8	Y8	Z8	X9	Y9	Z9	X10	Y10	Z10	X11	Y11	Z11	X12	Y12	Z12	X13	Y13	Z13	X14	Y14	Z14	X15	Y15	Z15	X16	Y16	Z16	X17	Y17	Z17	X18	Y18	Z18	X19	Y19	Z19	X20	Y20	Z20	X21	Y21	Z21	X22	Y22	Z22	X23	Y23	Z23	X24	Y24	Z24	X25	Y25	Z25	X26	Y26	Z26	X27	Y27	Z27	X28	Y28	Z28	X29	Y29	Z29	X30	Y30	Z30	X31	Y31	Z31	X32	Y32	Z32	X33	Y33	Z33	

1	50.940000000000	770.989959570882	989.725617699752	529.764858632234	949.422619128803	1428.171789065587	362.785594161234	1038.349958893415	1359.680851945568	530.796847109841	939.515764188711	1425.753725881093	698.624795490355	917.302889530994	1487.741986571559	520.226262632802	1003.165371827771	935.204120339305	654.270493746587	992.595488293918	956.182385501734	380.174409830656	1058.120390725746	738.752650546764	607.276694327142	983.958141211225	619.776770471613	658.712522292118	1060.783519658411	576.565527449705	573.124714303471	1065.343274949568	483.043040524809	572.893439772845	1070.547183048330	759.107176503089	411.472856310935	1020.334620851125	634.717602871467	332.088691564358	1114.607114118649	565.220555473772	401.320525296587	1118.493443141556	473.923525367227	390.451484567345	1044.191611130181	415.223056960731	375.614070952741	899.268917957836	393.183690186557	322.816092100512	870.230317326036	262.210276911819	367.186705644763	1026.317697621210	394.234762059680	576.236314575551	948.819434244008	294.401765098761	637.762933518258	975.325803131025	199.996001267773	567.562887101855	825.831529705715	42.937873159783	540.140899242078	998.536423084890	96.185678720261	571.092984519521	911.042384463215	37.165762531047	612.289325545249	1119.000486703396	44.155372493677	595.495078353826	673.557924071309	227.827883054944	399.152127319326	723.153627279847	173.850255848178	318.342876450595	827.910194228634	159.965378843295	340.746477259196	883.154406750487	35.918104830824	309.992890855122	1035.628036089520	1091.798954844958	228.515430541460	1276.405072234525	981.510282185391	231.516934625138	862.627510261150	1082.299668142449	810.588035024393	922.432240722994	826.645856185069	824.329488112815	
2	50.959571428571	769.916293876338	988.009329635671	533.996331269886	945.987942825194	1425.809469141056	363.937579970038	1037.342078209845	1357.889360476775	530.901829801574	941.122614913108	1424.360026178924	700.050999479629	916.460496955719	1486.125055365306	521.661290094392	1003.413688301794	933.666031451630	655.841473454937	989.927214797134	955.067161061897	381.816966023443	1058.387714308047	737.451660424610	608.402590756661	984.776985580486	618.028789227600	659.750982076535	1061.533894946941	575.272343031435	573.730322609922	1066.148051899970	481.003831188349	573.412930266733	1070.932714035755	761.365418463739	412.988177486198	1023.298051568247	636.301457833708	333.223354734525	1119.575025259717	568.975163437103	401.799582567801	1125.722923135075	477.873386877453	390.598022337680	1052.933014123732	417.552395148231	376.011325759087	908.035210537983	391.362152486350	325.205049044462	884.108058038353	259.351673475899	368.803379596171	1025.515374917667	392.520143525441	576.535550241725	946.673967330654	293.716702633384	638.014571323014	971.605651926134	199.148591674950	567.532530016560	820.018526859622	43.184174898066	540.033503671212	992.756572779800	95.981593132562	570.883966338310	905.169161453542	37.281961570324	612.108141781930	1113.201899865249	43.499230510823	595.629164305177	689.449923324829	216.118252554529	403.534070150576	739.844734255399	166.591807936941	320.840297885492	845.145239905985	157.691310761575	341.500144601693	905.524716242493	37.643628645146	306.954230934239	1020.791777987661	1085.084518746431	233.557116983961	1246.185076619930	953.649262628580	236.296098807685	876.303935710006	1078.587564551279	813.403298996830	950.805203964898	828.088592950319	825.277979952636	
3	50.979142857143	768.828388763139	986.340545380007	538.268431630462	942.523841221001	1423.433524141377	365.059087992569	1036.337318423975	1356.105889667163	530.961680194717	942.781310149461	1423.027087259138	701.433158305961	915.631207044951	1484.536285779777	523.054056534948	1003.588526951264	932.105219602915	657.430368064023	987.154138806041	953.935210796931	383.502992514787	1058.493104364166	736.123747010935	609.527380453291	985.416394176477	616.289282014836	660.807435922674	1062.079182459883	573.962046395541	574.356091071751	1066.716036339438	478.965545573702	573.956843849967	1071.101108308268	763.544931605612	414.409184943190	1025.980128522030	637.861501291646	334.261939766127	1124.203050438303	572.677583132574	402.172416126628	1132.651053007750	481.890299282522	390.619315686671	1061.626599234386	419.888203386978	376.232279280179	917.030011124649	388.974632736575	327.354857138302	898.792664372957	255.981782808307	370.131206524085	1024.513567480281	390.815087211944	576.855989722961	944.333194242568	293.022619821343	638.274999819212	967.702382850710	198.302813739247	567.499522105308	814.048208004841	43.437273459878	539.923465501734	986.801007091133	95.775755113207	570.663316858490	899.135260818382	37.398390468309	611.928909536907	1107.235466173158	42.857664179392	595.763523785327	706.665641451735	203.157995013623	407.530831654370	757.897583219793	158.334507582330	322.972027316612	863.583809024969	154.842054710635	341.941022696495	929.428553399279	39.257268631353	303.601300361826	1005.346048531607	1078.428786785151	238.615025785665	1214.222523687963	925.886936180156	241.197347902435	890.616419494170	1074.996571450080	816.099569431599	980.394324778770	830.270980189061	825.878940530527	
4	50.998714285714	767.747641151026	984.823311167216	542.455657090234	939.112074372320	1421.143592678495	366.098773258580	1035.367223742627	1354.412947872776	530.937371482740	944.480372778991	1421.848103801272	702.694651468054	914.847179693753	1483.061957041471	524.336605493520	1003.648950997655	930.585407993856	658.982751503589	984.341251123344	952.858957086930	385.176303284598	1058.339333402102	734.810127453314	610.619656337666	985.742070267543	614.637919669185	661.863834139127	1062.279537281866	572.678524083137	575.001067061169	1066.886596369094	477.006770322457	574.531406067739	1070.926675314210	765.544589831703	415.652509686573	1028.132498715997	639.346458738920	335.123029335464	1128.143397916392	576.178997183284	402.379356279531	1138.875216609298	485.884099975674	390.464744962354	1069.937317562737	422.180130853290	376.203372410572	926.095329451249	385.871443758356	329.058782269820	914.188210008444	252.044684377226	371.000974051633	1023.212542862306	389.187679109840	577.204618320298	941.750828826141	292.349279573982	638.549879905523	963.634141492542	197.498927443620	567.477621680571	808.023593077473	43.696853351043	539.813590682129	980.774941006486	95.582401249486	570.444881567728	893.046348361764	37.513529495301	611.758747465059	1101.201086475983	42.257130347114	595.893360950744	725.282197923241	188.913498972441	410.795542286606	777.414067506989	148.977013501461	324.499085644526	883.219654395291	151.317362289902	341.943183208274	954.821854823462	40.713230933028	300.015262651028	989.447205608391	1072.151551689686	243.515654611588	1180.703878337020	899.317626349756	246.130733400579	905.442453857586	1071.763693377489	818.524964883976	1010.832651728704	833.626734540842	825.912646969694	
